PathFileType	4	(X/Y/Z)	C:/Users/opensim2020/Desktop/walking_exp_matlab/subject01_walking13_straight_04.trc	
DataRate	CameraRate	NumFrames	NumMarkers	Units	OrigDataRate	OrigDataStartFrame	OrigNumFrames	
100.00	100.00	4	42	mm	100.00	2142	135	
Frame#	Time	LFHD			RFHD			LBHD			RBHD			C7			T10			CLAV			STRN			RBAK			LSHO			LUPA			LELB			LFRM			LWRA			LWRB			LFIN			RSHO			RUPA			RELB			RFRM			RWRA			RWRB			RFIN			LASI			RASI			LPSI			RPSI			LTHI			LKNE			LTIB			LANK			LHEE			LTOE			RTHI			RKNE			RTIB			RANK			RHEE			RTOE			*39			*40			*41			
		X1	Y1	Z1	X2	Y2	Z2	X3	Y3	Z3	X4	Y4	Z4	X5	Y5	Z5	X6	Y6	Z6	X7	Y7	Z7	X8	Y8	Z8	X9	Y9	Z9	X10	Y10	Z10	X11	Y11	Z11	X12	Y12	Z12	X13	Y13	Z13	X14	Y14	Z14	X15	Y15	Z15	X16	Y16	Z16	X17	Y17	Z17	X18	Y18	Z18	X19	Y19	Z19	X20	Y20	Z20	X21	Y21	Z21	X22	Y22	Z22	X23	Y23	Z23	X24	Y24	Z24	X25	Y25	Z25	X26	Y26	Z26	X27	Y27	Z27	X28	Y28	Z28	X29	Y29	Z29	X30	Y30	Z30	X31	Y31	Z31	X32	Y32	Z32	X33	Y33	Z33	X34	Y34	Z34	X35	Y35	Z35	X36	Y36	Z36	X37	Y37	Z37	X38	Y38	Z38	X39	Y39	Z39	X40	Y40	Z40	X41	Y41	Z41	X42	Y42	Z42	

34	0.330	1558.93835	555.63568	1663.43445	1447.74316	540.36884	1676.15649	1546.81311	674.01721	1626.37415	1427.63831	660.82507	1638.44214	1493.59631	721.35846	1435.53540	1470.74207	763.43011	1142.83777	1483.19702	580.18665	1365.36023	1478.37231	538.80475	1210.99377	1407.12488	783.42426	1245.48389	1647.54321	634.98645	1386.09021	1731.30969	663.39978	1204.68469	1738.91772	670.98676	1050.82898	1756.84009	600.06873	956.54938	1730.61877	488.45834	876.32220	1754.43311	538.07452	852.17126	1769.28821	471.53659	807.60834	1335.81787	649.05396	1400.65088	1226.22253	732.06525	1218.20239	1213.38074	748.11365	1093.27747	1182.87915	723.15558	973.08356	1207.83875	645.76404	856.72888	1165.43359	686.86493	856.75226	1162.17725	642.23877	787.16998	1569.35901	583.07397	937.93390	1352.75427	590.87579	939.86591	1519.48401	770.47919	950.29352	1374.08643	770.59363	948.63721	1617.83215	613.40594	604.48053	1599.96960	624.43414	468.99323	1605.48206	691.96558	289.48700	1549.82935	738.58862	77.43523	1495.32031	783.90106	50.99353	1559.75610	593.94196	35.11324	1291.11145	560.54382	612.02118	1310.46875	522.34088	459.59100	1312.12366	659.16034	350.30972	1362.15479	799.13434	199.37053	1416.99963	856.07935	197.21666	1356.56104	723.88031	77.98854	1472.51770	550.09943	1709.01709	-3102.13257	1973.06104	1023.82843	-3140.61572	2012.61255	1022.16461 
35	0.340	1558.89807	542.83411	1663.95056	1447.54553	527.63135	1676.15247	1547.01904	661.30725	1627.19470	1427.72046	648.17078	1638.73291	1494.34924	709.06403	1435.93518	1471.82898	751.26917	1143.26489	1483.86169	567.88385	1365.67065	1479.63794	526.54132	1211.47937	1408.27173	771.09320	1245.73438	1648.32788	622.72321	1387.06116	1732.88721	649.53461	1205.90710	1741.24915	654.31934	1051.67627	1759.03210	579.74799	960.05414	1732.59717	464.95273	884.52844	1756.40588	513.52826	858.36285	1771.26794	445.24332	816.56024	1336.53015	636.48712	1400.71667	1227.44812	720.53241	1218.43347	1214.73340	737.21423	1093.85669	1183.33594	715.37805	973.44678	1207.06604	641.14154	854.82758	1164.84155	682.33752	856.20892	1160.92053	639.94543	785.40363	1570.98022	571.97040	938.14410	1354.46765	578.18469	940.79175	1519.47266	758.86963	950.79602	1373.98779	757.94244	949.23132	1618.04004	607.43469	604.29163	1600.76733	621.57617	469.02914	1605.45618	691.02582	290.31268	1549.67603	738.31354	78.32593	1495.25818	784.00861	52.66007	1559.94482	593.95667	35.08095	1292.31799	542.64325	614.69897	1312.72388	502.01364	462.72861	1314.38232	633.73590	346.67914	1364.34180	766.46490	189.37881	1419.50830	823.44019	183.49860	1357.34485	683.79572	74.01044	1472.15918	537.09009	1709.17273	-3101.92432	1973.07397	1023.31415	-3140.70752	2012.51733	1022.18262 
36	0.350	1558.62830	529.94287	1664.23706	1447.32349	514.88129	1676.03760	1547.12183	648.57129	1627.76721	1427.73230	635.57025	1638.88513	1495.02429	696.67969	1436.18823	1472.81213	739.09991	1143.53271	1484.64197	555.54065	1365.97632	1480.84033	514.26563	1211.65759	1409.42224	758.72638	1245.81787	1649.02979	610.39453	1387.88696	1734.46838	635.59802	1206.95679	1743.40015	637.84918	1052.31091	1760.92578	559.60217	963.64459	1734.58838	441.90445	893.02374	1758.16406	489.36331	864.85236	1772.99011	419.33524	825.73840	1337.32422	624.10626	1400.67200	1228.63098	709.12512	1218.56360	1215.96106	726.30109	1094.35010	1183.82813	707.56226	973.82294	1206.14661	636.58563	853.01996	1164.33179	677.79523	855.80048	1159.74426	637.40582	783.86792	1572.47083	560.83936	938.00360	1355.87561	565.05853	941.58844	1519.46875	747.32617	951.13159	1373.82104	745.25793	949.59735	1618.43079	601.16492	604.12683	1601.50562	618.60864	469.10349	1605.35754	689.78833	291.10742	1549.35901	737.97516	79.10458	1494.31030	783.19855	53.43046	1560.34314	594.13654	35.21958	1293.42834	525.20685	617.17426	1315.29712	482.42804	465.58292	1316.36938	608.45557	342.46011	1366.55078	733.16162	179.14719	1421.89233	789.54419	169.10371	1357.93909	643.15192	69.89721	1471.78357	524.22101	1709.14575	-3101.95483	1973.14990	1023.42657	-3140.82251	2012.49634	1022.08801 
37	0.360	1558.44873	517.16125	1664.40161	1447.03308	502.17105	1675.80481	1547.23914	635.84686	1628.19202	1427.76477	622.94446	1638.79968	1495.63770	684.31403	1436.28333	1473.75574	726.93268	1143.67920	1485.32825	543.17737	1366.05237	1481.91357	502.01706	1211.64758	1410.47827	746.37048	1245.73730	1649.66028	598.01959	1388.50842	1735.85754	621.65271	1207.80505	1745.58972	621.53259	1053.09668	1763.06433	539.77600	967.50836	1736.41223	419.29352	901.69958	1760.17261	465.49890	871.66644	1774.57593	393.81970	835.15936	1337.87598	611.66272	1400.39319	1229.78662	697.62073	1218.46399	1217.08142	715.28027	1094.62756	1184.16772	699.76508	974.11554	1204.99536	631.98029	851.32153	1163.81824	673.35394	855.50562	1158.46814	635.06305	782.31842	1573.90723	549.89331	937.75458	1357.38354	552.51440	942.17950	1519.41052	735.80530	951.26245	1373.68799	732.72284	949.78229	1618.88330	594.85724	603.97021	1602.13867	615.51129	469.29742	1605.11047	688.14740	291.98099	1548.69287	737.52710	79.82594	1493.56494	782.77863	54.78518	1559.96899	593.44977	35.00087	1294.42017	508.16663	619.21405	1317.60632	463.56143	467.96619	1318.40674	582.97461	337.91965	1368.44836	699.11401	168.38454	1424.26147	754.58105	154.25995	1357.90503	601.96918	66.02299	1471.29797	511.39929	1709.04626	-3102.04517	1972.97998	1023.66187	-3140.75977	2012.48608	1021.97461 
